{
  "accessors": [
    {
      "bufferView": 2,
      "componentType": 5126,
      "count": 128,
      "max": [
        -0.02081800065934658,
        0.0006960000027902424,
        -0.04267999902367592
      ],
      "min": [
        -0.021097000688314438,
        -0.0006960000027902424,
        -0.04407300055027008
      ],
      "type": "VEC3"
    },
    {
      "bufferView": 2,
      "byteOffset": 1536,
      "componentType": 5126,
      "count": 128,
      "max": [
        -0.9025974869728088,
        0.4304148852825165,
        0.4304148852825165
      ],
      "min": [
        -1.0,
        -0.4304148852825165,
        -0.4304148852825165
      ],
      "type": "VEC3"
    },
    {
      "bufferView": 1,
      "componentType": 5126,
      "count": 128,
      "max": [
        0.8285890221595764,
        -0.10955999791622162
      ],
      "min": [
        0.8282349705696106,
        -0.11138200014829636
      ],
      "type": "VEC2"
    },
    {
      "bufferView": 0,
      "componentType": 5125,
      "count": 564,
      "type": "SCALAR"
    },
    {
      "bufferView": 2,
      "byteOffset": 3072,
      "componentType": 5126,
      "count": 8449,
      "max": [
        0.021097000688314438,
        0.057500001043081284,
        0.07552900165319443
      ],
      "min": [
        -0.02102000080049038,
        -0.057500001043081284,
        -0.07552900165319443
      ],
      "type": "VEC3"
    },
    {
      "bufferView": 2,
      "byteOffset": 104460,
      "componentType": 5126,
      "count": 8449,
      "max": [
        1.0,
        1.0,
        1.0
      ],
      "min": [
        -1.0,
        -1.0,
        -1.0
      ],
      "type": "VEC3"
    },
    {
      "bufferView": 1,
      "byteOffset": 1024,
      "componentType": 5126,
      "count": 8449,
      "max": [
        1.0,
        1.0
      ],
      "min": [
        0.0,
        -0.25539299845695496
      ],
      "type": "VEC2"
    },
    {
      "bufferView": 0,
      "byteOffset": 2256,
      "componentType": 5125,
      "count": 21861,
      "type": "SCALAR"
    }
  ],
  "asset": {
    "extras": {
      "author": "Rasmus (https://sketchfab.com/Rasmus82)",
      "license": "CC-BY-4.0 (http://creativecommons.org/licenses/by/4.0/)",
      "source": "https://sketchfab.com/3d-models/wi-fi-router-nokia-beacon-1-658c8237d94d4e2e9fe3a95d38ba21e6",
      "title": "Wi-Fi router Nokia Beacon 1"
    },
    "generator": "Sketchfab-15.30.0",
    "version": "2.0"
  },
  "bufferViews": [
    {
      "buffer": 0,
      "byteLength": 89700,
      "name": "floatBufferViews",
      "target": 34963
    },
    {
      "buffer": 0,
      "byteLength": 68616,
      "byteOffset": 89700,
      "byteStride": 8,
      "name": "floatBufferViews",
      "target": 34962
    },
    {
      "buffer": 0,
      "byteLength": 205848,
      "byteOffset": 158316,
      "byteStride": 12,
      "name": "floatBufferViews",
      "target": 34962
    }
  ],
  "buffers": [
    {
      "byteLength": 364164,
      "uri": "scene.bin"
    }
  ],
  "extensionsUsed": [
    "KHR_materials_emissive_strength",
    "KHR_materials_clearcoat"
  ],
  "images": [
    {
      "uri": "textures/textur_baseColor.png"
    },
    {
      "uri": "textures/textur_metallicRoughness.png"
    }
  ],
  "materials": [
    {
      "emissiveFactor": [
        0.21582136556458525,
        0.5634554588439069,
        0.9504074916579607
      ],
      "extensions": {
        "KHR_materials_emissive_strength": {
          "emissiveStrength": 1.9352439931245502
        }
      },
      "name": "Light",
      "pbrMetallicRoughness": {
        "baseColorFactor": [
          0.0,
          0.8282921100667163,
          1.0,
          1.0
        ],
        "metallicFactor": 0.0,
        "roughnessFactor": 0.6
      }
    },
    {
      "doubleSided": true,
      "extensions": {
        "KHR_materials_clearcoat": {
          "clearcoatFactor": 1.0,
          "clearcoatRoughnessFactor": 0.04
        }
      },
      "name": "textur",
      "pbrMetallicRoughness": {
        "baseColorTexture": {
          "index": 0
        },
        "metallicRoughnessTexture": {
          "index": 1
        },
        "roughnessFactor": 0.38247735612146627
      }
    }
  ],
  "meshes": [
    {
      "name": "Object_0",
      "primitives": [
        {
          "attributes": {
            "NORMAL": 1,
            "POSITION": 0,
            "TEXCOORD_0": 2
          },
          "indices": 3,
          "material": 0,
          "mode": 4
        }
      ]
    },
    {
      "name": "Object_1",
      "primitives": [
        {
          "attributes": {
            "NORMAL": 5,
            "POSITION": 4,
            "TEXCOORD_0": 6
          },
          "indices": 7,
          "material": 1,
          "mode": 4
        }
      ]
    }
  ],
  "nodes": [
    {
      "children": [
        1
      ],
      "matrix": [
        1.0,
        3.5707495248565405e-32,
        -1.6081226229577292e-16,
        0.0,
        -1.6081226229577292e-16,
        2.220446049250313e-16,
        -1.0,
        0.0,
        0.0,
        1.0,
        2.220446049250313e-16,
        0.0,
        0.0,
        0.0,
        0.0,
        1.0
      ],
      "name": "Sketchfab_model"
    },
    {
      "children": [
        2,
        3
      ],
      "name": "4f2a38d17cfb4f5eb41e7f4a3a2b5422.obj.cleaner.materialmerger.gles"
    },
    {
      "mesh": 0,
      "name": "Object_2"
    },
    {
      "mesh": 1,
      "name": "Object_3"
    }
  ],
  "samplers": [
    {
      "magFilter": 9729,
      "minFilter": 9987,
      "wrapS": 10497,
      "wrapT": 10497
    }
  ],
  "scene": 0,
  "scenes": [
    {
      "name": "Sketchfab_Scene",
      "nodes": [
        0
      ]
    }
  ],
  "textures": [
    {
      "sampler": 0,
      "source": 0
    },
    {
      "sampler": 0,
      "source": 1
    }
  ]
}
