{
  "accessors": [
    {
      "bufferView": 2,
      "componentType": 5126,
      "count": 11671,
      "max": [
        1.1162266731262207,
        0.14601358771324158,
        0.7981416583061218
      ],
      "min": [
        -1.1162266731262207,
        -0.036492377519607544,
        -0.7981416583061218
      ],
      "type": "VEC3"
    },
    {
      "bufferView": 2,
      "byteOffset": 140052,
      "componentType": 5126,
      "count": 11671,
      "max": [
        1.0,
        1.0,
        1.0
      ],
      "min": [
        -1.0,
        -1.0,
        -1.0
      ],
      "type": "VEC3"
    },
    {
      "bufferView": 1,
      "componentType": 5126,
      "count": 11671,
      "max": [
        0.7500000596046448,
        0.875
      ],
      "min": [
        -0.0045559643767774105,
        -0.005706815514713526
      ],
      "type": "VEC2"
    },
    {
      "bufferView": 0,
      "componentType": 5125,
      "count": 51306,
      "type": "SCALAR"
    },
    {
      "bufferView": 2,
      "byteOffset": 280104,
      "componentType": 5126,
      "count": 14308,
      "max": [
        0.4480646252632141,
        0.11225467175245285,
        0.7979796528816223
      ],
      "min": [
        0.3777729272842407,
        -0.036492377519607544,
        -0.7979796528816223
      ],
      "type": "VEC3"
    },
    {
      "bufferView": 2,
      "byteOffset": 451800,
      "componentType": 5126,
      "count": 14308,
      "max": [
        1.0,
        1.0,
        1.0
      ],
      "min": [
        -1.0,
        -1.0,
        -1.0
      ],
      "type": "VEC3"
    },
    {
      "bufferView": 1,
      "byteOffset": 93368,
      "componentType": 5126,
      "count": 14308,
      "max": [
        0.5683247447013855,
        0.8328092694282532
      ],
      "min": [
        0.0,
        0.0
      ],
      "type": "VEC2"
    },
    {
      "bufferView": 0,
      "byteOffset": 205224,
      "componentType": 5125,
      "count": 72066,
      "type": "SCALAR"
    },
    {
      "bufferView": 2,
      "byteOffset": 623496,
      "componentType": 5126,
      "count": 1034,
      "max": [
        0.9526382684707642,
        0.14601324498653412,
        0.6636344194412231
      ],
      "min": [
        -0.9520529508590698,
        0.009810185059905052,
        -0.6705601811408997
      ],
      "type": "VEC3"
    },
    {
      "bufferView": 2,
      "byteOffset": 635904,
      "componentType": 5126,
      "count": 1034,
      "max": [
        1.0,
        1.0,
        1.0
      ],
      "min": [
        -1.0,
        0.0,
        -1.0
      ],
      "type": "VEC3"
    },
    {
      "bufferView": 1,
      "byteOffset": 207832,
      "componentType": 5126,
      "count": 1034,
      "max": [
        0.7500000596046448,
        0.7422484755516052
      ],
      "min": [
        0.0,
        0.0
      ],
      "type": "VEC2"
    },
    {
      "bufferView": 0,
      "byteOffset": 493488,
      "componentType": 5125,
      "count": 3912,
      "type": "SCALAR"
    },
    {
      "bufferView": 2,
      "byteOffset": 648312,
      "componentType": 5126,
      "count": 2887,
      "max": [
        0.029287753626704216,
        0.02928810752928257,
        0.02928784303367138
      ],
      "min": [
        -0.02928842417895794,
        -0.04283003509044647,
        -0.029288334771990776
      ],
      "type": "VEC3"
    },
    {
      "bufferView": 2,
      "byteOffset": 682956,
      "componentType": 5126,
      "count": 2887,
      "max": [
        1.0,
        1.0,
        1.0
      ],
      "min": [
        -1.0,
        -0.26118406653404236,
        -1.0
      ],
      "type": "VEC3"
    },
    {
      "bufferView": 1,
      "byteOffset": 216104,
      "componentType": 5126,
      "count": 2887,
      "max": [
        1.0,
        1.0000001192092896
      ],
      "min": [
        0.0,
        0.0
      ],
      "type": "VEC2"
    },
    {
      "bufferView": 0,
      "byteOffset": 509136,
      "componentType": 5125,
      "count": 12474,
      "type": "SCALAR"
    },
    {
      "bufferView": 2,
      "byteOffset": 717600,
      "componentType": 5126,
      "count": 2887,
      "max": [
        0.029287753626704216,
        0.02928810752928257,
        0.02928784303367138
      ],
      "min": [
        -0.02928842417895794,
        -0.04283003509044647,
        -0.029288334771990776
      ],
      "type": "VEC3"
    },
    {
      "bufferView": 2,
      "byteOffset": 752244,
      "componentType": 5126,
      "count": 2887,
      "max": [
        1.0,
        1.0,
        1.0
      ],
      "min": [
        -1.0,
        -0.26118406653404236,
        -1.0
      ],
      "type": "VEC3"
    },
    {
      "bufferView": 1,
      "byteOffset": 239200,
      "componentType": 5126,
      "count": 2887,
      "max": [
        1.0,
        1.0000001192092896
      ],
      "min": [
        0.0,
        0.0
      ],
      "type": "VEC2"
    },
    {
      "bufferView": 0,
      "byteOffset": 559032,
      "componentType": 5125,
      "count": 12474,
      "type": "SCALAR"
    },
    {
      "bufferView": 2,
      "byteOffset": 786888,
      "componentType": 5126,
      "count": 45292,
      "max": [
        0.024306565523147583,
        0.0516083687543869,
        0.024305075407028198
      ],
      "min": [
        -0.024304699152708054,
        0.0008238703012466431,
        -0.02430620789527893
      ],
      "type": "VEC3"
    },
    {
      "bufferView": 2,
      "byteOffset": 1330392,
      "componentType": 5126,
      "count": 45292,
      "max": [
        1.0,
        1.0,
        1.0
      ],
      "min": [
        -1.0,
        0.0,
        -1.0
      ],
      "type": "VEC3"
    },
    {
      "bufferView": 1,
      "byteOffset": 262296,
      "componentType": 5126,
      "count": 45292,
      "max": [
        1.004981279373169,
        1.001312494277954
      ],
      "min": [
        -0.00415786262601614,
        0.4999999403953552
      ],
      "type": "VEC2"
    },
    {
      "bufferView": 0,
      "byteOffset": 608928,
      "componentType": 5125,
      "count": 190650,
      "type": "SCALAR"
    },
    {
      "bufferView": 2,
      "byteOffset": 1873896,
      "componentType": 5126,
      "count": 2887,
      "max": [
        0.029287753626704216,
        0.02928810752928257,
        0.02928784303367138
      ],
      "min": [
        -0.02928842417895794,
        -0.04283003509044647,
        -0.029288334771990776
      ],
      "type": "VEC3"
    },
    {
      "bufferView": 2,
      "byteOffset": 1908540,
      "componentType": 5126,
      "count": 2887,
      "max": [
        1.0,
        1.0,
        1.0
      ],
      "min": [
        -1.0,
        -0.26118406653404236,
        -1.0
      ],
      "type": "VEC3"
    },
    {
      "bufferView": 1,
      "byteOffset": 624632,
      "componentType": 5126,
      "count": 2887,
      "max": [
        1.0,
        1.0000001192092896
      ],
      "min": [
        0.0,
        0.0
      ],
      "type": "VEC2"
    },
    {
      "bufferView": 0,
      "byteOffset": 1371528,
      "componentType": 5125,
      "count": 12474,
      "type": "SCALAR"
    },
    {
      "bufferView": 2,
      "byteOffset": 1943184,
      "componentType": 5126,
      "count": 2887,
      "max": [
        0.029287753626704216,
        0.02928810752928257,
        0.02928784303367138
      ],
      "min": [
        -0.02928842417895794,
        -0.04283003509044647,
        -0.029288334771990776
      ],
      "type": "VEC3"
    },
    {
      "bufferView": 2,
      "byteOffset": 1977828,
      "componentType": 5126,
      "count": 2887,
      "max": [
        1.0,
        1.0,
        1.0
      ],
      "min": [
        -1.0,
        -0.26118406653404236,
        -1.0
      ],
      "type": "VEC3"
    },
    {
      "bufferView": 1,
      "byteOffset": 647728,
      "componentType": 5126,
      "count": 2887,
      "max": [
        1.0,
        1.0000001192092896
      ],
      "min": [
        0.0,
        0.0
      ],
      "type": "VEC2"
    },
    {
      "bufferView": 0,
      "byteOffset": 1421424,
      "componentType": 5125,
      "count": 12474,
      "type": "SCALAR"
    },
    {
      "bufferView": 2,
      "byteOffset": 2012472,
      "componentType": 5126,
      "count": 45292,
      "max": [
        0.024306565523147583,
        0.0516083687543869,
        0.024305075407028198
      ],
      "min": [
        -0.024304699152708054,
        0.0008238703012466431,
        -0.02430620789527893
      ],
      "type": "VEC3"
    },
    {
      "bufferView": 2,
      "byteOffset": 2555976,
      "componentType": 5126,
      "count": 45292,
      "max": [
        1.0,
        1.0,
        1.0
      ],
      "min": [
        -1.0,
        0.0,
        -1.0
      ],
      "type": "VEC3"
    },
    {
      "bufferView": 1,
      "byteOffset": 670824,
      "componentType": 5126,
      "count": 45292,
      "max": [
        1.004981279373169,
        1.001312494277954
      ],
      "min": [
        -0.00415786262601614,
        0.4999999403953552
      ],
      "type": "VEC2"
    },
    {
      "bufferView": 0,
      "byteOffset": 1471320,
      "componentType": 5125,
      "count": 190650,
      "type": "SCALAR"
    },
    {
      "bufferView": 2,
      "byteOffset": 3099480,
      "componentType": 5126,
      "count": 45292,
      "max": [
        0.024306565523147583,
        0.0516083687543869,
        0.024305075407028198
      ],
      "min": [
        -0.024304699152708054,
        0.0008238703012466431,
        -0.02430620789527893
      ],
      "type": "VEC3"
    },
    {
      "bufferView": 2,
      "byteOffset": 3642984,
      "componentType": 5126,
      "count": 45292,
      "max": [
        1.0,
        1.0,
        1.0
      ],
      "min": [
        -1.0,
        0.0,
        -1.0
      ],
      "type": "VEC3"
    },
    {
      "bufferView": 1,
      "byteOffset": 1033160,
      "componentType": 5126,
      "count": 45292,
      "max": [
        1.004981279373169,
        1.001312494277954
      ],
      "min": [
        -0.00415786262601614,
        0.4999999403953552
      ],
      "type": "VEC2"
    },
    {
      "bufferView": 0,
      "byteOffset": 2233920,
      "componentType": 5125,
      "count": 190650,
      "type": "SCALAR"
    },
    {
      "bufferView": 2,
      "byteOffset": 4186488,
      "componentType": 5126,
      "count": 45292,
      "max": [
        0.024306565523147583,
        0.0516083687543869,
        0.024305075407028198
      ],
      "min": [
        -0.024304699152708054,
        0.0008238703012466431,
        -0.02430620789527893
      ],
      "type": "VEC3"
    },
    {
      "bufferView": 2,
      "byteOffset": 4729992,
      "componentType": 5126,
      "count": 45292,
      "max": [
        1.0,
        1.0,
        1.0
      ],
      "min": [
        -1.0,
        0.0,
        -1.0
      ],
      "type": "VEC3"
    },
    {
      "bufferView": 1,
      "byteOffset": 1395496,
      "componentType": 5126,
      "count": 45292,
      "max": [
        1.004981279373169,
        1.001312494277954
      ],
      "min": [
        -0.00415786262601614,
        0.4999999403953552
      ],
      "type": "VEC2"
    },
    {
      "bufferView": 0,
      "byteOffset": 2996520,
      "componentType": 5125,
      "count": 190650,
      "type": "SCALAR"
    },
    {
      "bufferView": 2,
      "byteOffset": 5273496,
      "componentType": 5126,
      "count": 4,
      "max": [
        0.9223571419715881,
        0.0,
        0.6871531009674072
      ],
      "min": [
        -0.9223571419715881,
        0.0,
        -0.6871531009674072
      ],
      "type": "VEC3"
    },
    {
      "bufferView": 2,
      "byteOffset": 5273544,
      "componentType": 5126,
      "count": 4,
      "max": [
        0.0,
        1.0,
        -0.0
      ],
      "min": [
        0.0,
        1.0,
        -0.0
      ],
      "type": "VEC3"
    },
    {
      "bufferView": 1,
      "byteOffset": 1757832,
      "componentType": 5126,
      "count": 4,
      "max": [
        1.0,
        1.0
      ],
      "min": [
        0.0,
        0.0
      ],
      "type": "VEC2"
    },
    {
      "bufferView": 0,
      "byteOffset": 3759120,
      "componentType": 5125,
      "count": 6,
      "type": "SCALAR"
    },
    {
      "bufferView": 2,
      "byteOffset": 5273592,
      "componentType": 5126,
      "count": 550,
      "max": [
        0.026084769517183304,
        0.026084743440151215,
        0.009984091855585575
      ],
      "min": [
        -0.0260847769677639,
        -0.026084747165441513,
        -0.00998409278690815
      ],
      "type": "VEC3"
    },
    {
      "bufferView": 2,
      "byteOffset": 5280192,
      "componentType": 5126,
      "count": 550,
      "max": [
        1.0,
        1.0,
        1.0
      ],
      "min": [
        -1.0,
        -1.0,
        -0.9999909400939941
      ],
      "type": "VEC3"
    },
    {
      "bufferView": 1,
      "byteOffset": 1757864,
      "componentType": 5126,
      "count": 550,
      "max": [
        1.0,
        0.8717732429504395
      ],
      "min": [
        0.0,
        0.0
      ],
      "type": "VEC2"
    },
    {
      "bufferView": 0,
      "byteOffset": 3759144,
      "componentType": 5125,
      "count": 1206,
      "type": "SCALAR"
    }
  ],
  "asset": {
    "extras": {
      "author": "barigablinami (https://sketchfab.com/barigablinami)",
      "license": "CC-BY-4.0 (http://creativecommons.org/licenses/by/4.0/)",
      "source": "https://sketchfab.com/3d-models/tablet-0627ef80023c4a7e90868b1bab365f98",
      "title": "Tablet"
    },
    "generator": "Sketchfab-12.68.0",
    "version": "2.0"
  },
  "bufferViews": [
    {
      "buffer": 0,
      "byteLength": 3763968,
      "name": "floatBufferViews",
      "target": 34963
    },
    {
      "buffer": 0,
      "byteLength": 1762264,
      "byteOffset": 3763968,
      "byteStride": 8,
      "name": "floatBufferViews",
      "target": 34962
    },
    {
      "buffer": 0,
      "byteLength": 5286792,
      "byteOffset": 5526232,
      "byteStride": 12,
      "name": "floatBufferViews",
      "target": 34962
    }
  ],
  "buffers": [
    {
      "byteLength": 10813024,
      "uri": "scene.bin"
    }
  ],
  "materials": [
    {
      "doubleSided": true,
      "name": "material_0",
      "pbrMetallicRoughness": {
        "metallicFactor": 0.0,
        "roughnessFactor": 0.6
      }
    },
    {
      "doubleSided": true,
      "name": "Material.001",
      "pbrMetallicRoughness": {
        "baseColorFactor": [
          0.00999484,
          0.0215984,
          0.00260461,
          1.0
        ],
        "metallicFactor": 0.486364,
        "roughnessFactor": 0.390909
      }
    },
    {
      "doubleSided": true,
      "name": "Material.002",
      "pbrMetallicRoughness": {
        "baseColorFactor": [
          0.110219,
          0.110219,
          0.110219,
          1.0
        ],
        "roughnessFactor": 0.136364
      }
    },
    {
      "doubleSided": true,
      "name": "Material.005",
      "pbrMetallicRoughness": {
        "baseColorFactor": [
          0.0668071,
          0.0668071,
          0.0668071,
          1.0
        ],
        "roughnessFactor": 0.481818
      }
    },
    {
      "doubleSided": true,
      "name": "Material.004",
      "pbrMetallicRoughness": {
        "baseColorFactor": [
          0.0675541,
          0.0675541,
          0.0675541,
          1.0
        ],
        "metallicFactor": 0.936364,
        "roughnessFactor": 0.136364
      }
    },
    {
      "doubleSided": true,
      "name": "Material.003",
      "pbrMetallicRoughness": {
        "baseColorFactor": [
          0.0,
          0.0,
          0.0,
          1.0
        ],
        "metallicFactor": 0.0,
        "roughnessFactor": 0.445455
      }
    },
    {
      "doubleSided": true,
      "name": "Material.006",
      "pbrMetallicRoughness": {
        "metallicFactor": 0.0,
        "roughnessFactor": 0.168182
      }
    }
  ],
  "meshes": [
    {
      "name": "Object_0",
      "primitives": [
        {
          "attributes": {
            "NORMAL": 1,
            "POSITION": 0,
            "TEXCOORD_0": 2
          },
          "indices": 3,
          "material": 1,
          "mode": 4
        }
      ]
    },
    {
      "name": "Object_1",
      "primitives": [
        {
          "attributes": {
            "NORMAL": 5,
            "POSITION": 4,
            "TEXCOORD_0": 6
          },
          "indices": 7,
          "material": 2,
          "mode": 4
        }
      ]
    },
    {
      "name": "Object_2",
      "primitives": [
        {
          "attributes": {
            "NORMAL": 9,
            "POSITION": 8,
            "TEXCOORD_0": 10
          },
          "indices": 11,
          "material": 3,
          "mode": 4
        }
      ]
    },
    {
      "name": "Object_3",
      "primitives": [
        {
          "attributes": {
            "NORMAL": 13,
            "POSITION": 12,
            "TEXCOORD_0": 14
          },
          "indices": 15,
          "material": 4,
          "mode": 4
        }
      ]
    },
    {
      "name": "Object_4",
      "primitives": [
        {
          "attributes": {
            "NORMAL": 17,
            "POSITION": 16,
            "TEXCOORD_0": 18
          },
          "indices": 19,
          "material": 4,
          "mode": 4
        }
      ]
    },
    {
      "name": "Object_5",
      "primitives": [
        {
          "attributes": {
            "NORMAL": 21,
            "POSITION": 20,
            "TEXCOORD_0": 22
          },
          "indices": 23,
          "material": 5,
          "mode": 4
        }
      ]
    },
    {
      "name": "Object_6",
      "primitives": [
        {
          "attributes": {
            "NORMAL": 25,
            "POSITION": 24,
            "TEXCOORD_0": 26
          },
          "indices": 27,
          "material": 4,
          "mode": 4
        }
      ]
    },
    {
      "name": "Object_7",
      "primitives": [
        {
          "attributes": {
            "NORMAL": 29,
            "POSITION": 28,
            "TEXCOORD_0": 30
          },
          "indices": 31,
          "material": 4,
          "mode": 4
        }
      ]
    },
    {
      "name": "Object_8",
      "primitives": [
        {
          "attributes": {
            "NORMAL": 33,
            "POSITION": 32,
            "TEXCOORD_0": 34
          },
          "indices": 35,
          "material": 5,
          "mode": 4
        }
      ]
    },
    {
      "name": "Object_9",
      "primitives": [
        {
          "attributes": {
            "NORMAL": 37,
            "POSITION": 36,
            "TEXCOORD_0": 38
          },
          "indices": 39,
          "material": 5,
          "mode": 4
        }
      ]
    },
    {
      "name": "Object_10",
      "primitives": [
        {
          "attributes": {
            "NORMAL": 41,
            "POSITION": 40,
            "TEXCOORD_0": 42
          },
          "indices": 43,
          "material": 5,
          "mode": 4
        }
      ]
    },
    {
      "name": "Object_11",
      "primitives": [
        {
          "attributes": {
            "NORMAL": 45,
            "POSITION": 44,
            "TEXCOORD_0": 46
          },
          "indices": 47,
          "material": 6,
          "mode": 4
        }
      ]
    },
    {
      "name": "Object_12",
      "primitives": [
        {
          "attributes": {
            "NORMAL": 49,
            "POSITION": 48,
            "TEXCOORD_0": 50
          },
          "indices": 51,
          "material": 0,
          "mode": 4
        }
      ]
    }
  ],
  "nodes": [
    {
      "children": [
        1
      ],
      "matrix": [
        1.0,
        0.0,
        0.0,
        0.0,
        0.0,
        2.220446049250313e-16,
        -1.0,
        0.0,
        0.0,
        1.0,
        2.220446049250313e-16,
        0.0,
        0.0,
        0.0,
        0.0,
        1.0
      ],
      "name": "Sketchfab_model"
    },
    {
      "children": [
        2
      ],
      "name": "root"
    },
    {
      "children": [
        3,
        25
      ],
      "matrix": [
        1.0,
        0.0,
        0.0,
        0.0,
        0.0,
        2.220446049250313e-16,
        1.0,
        0.0,
        0.0,
        -1.0,
        2.220446049250313e-16,
        0.0,
        0.0,
        0.0,
        0.0,
        1.0
      ],
      "name": "GLTF_SceneRootNode"
    },
    {
      "children": [
        4,
        5,
        6,
        7,
        9,
        11,
        13,
        15,
        17,
        19,
        21,
        23
      ],
      "matrix": [
        1.0,
        0.0,
        0.0,
        0.0,
        0.0,
        0.0,
        1.0,
        0.0,
        0.0,
        -1.0,
        0.0,
        0.0,
        0.08509606122970581,
        0.03687499463558197,
        0.0,
        1.0
      ],
      "name": "Cube_10"
    },
    {
      "mesh": 0,
      "name": "Object_4"
    },
    {
      "mesh": 1,
      "name": "Object_5"
    },
    {
      "mesh": 2,
      "name": "Object_6"
    },
    {
      "children": [
        8
      ],
      "matrix": [
        1.0,
        0.0,
        0.0,
        0.0,
        0.0,
        1.0,
        0.0,
        0.0,
        0.0,
        0.0,
        1.0,
        0.0,
        1.0754340887069702,
        0.036968450993299484,
        0.7558265328407288,
        1.0
      ],
      "name": "Cylinder_0"
    },
    {
      "mesh": 3,
      "name": "Object_8"
    },
    {
      "children": [
        10
      ],
      "matrix": [
        1.0,
        0.0,
        0.0,
        0.0,
        0.0,
        1.0,
        0.0,
        0.0,
        0.0,
        0.0,
        1.0,
        0.0,
        -1.076964020729065,
        0.036968450993299484,
        0.7558265328407288,
        1.0
      ],
      "name": "Cylinder.001_1"
    },
    {
      "mesh": 4,
      "name": "Object_10"
    },
    {
      "children": [
        12
      ],
      "matrix": [
        1.0,
        0.0,
        0.0,
        0.0,
        0.0,
        1.0,
        0.0,
        0.0,
        0.0,
        0.0,
        1.0,
        0.0,
        0.5225078463554382,
        0.0272951852530241,
        0.765828549861908,
        1.0
      ],
      "name": "Cylinder.002_2"
    },
    {
      "mesh": 5,
      "name": "Object_12"
    },
    {
      "children": [
        14
      ],
      "matrix": [
        1.0,
        0.0,
        0.0,
        0.0,
        0.0,
        1.0,
        0.0,
        0.0,
        0.0,
        0.0,
        1.0,
        0.0,
        1.0754340887069702,
        0.036968450993299484,
        -0.7444931864738464,
        1.0
      ],
      "name": "Cylinder.003_3"
    },
    {
      "mesh": 6,
      "name": "Object_14"
    },
    {
      "children": [
        16
      ],
      "matrix": [
        1.0,
        0.0,
        0.0,
        0.0,
        0.0,
        1.0,
        0.0,
        0.0,
        0.0,
        0.0,
        1.0,
        0.0,
        -1.076964020729065,
        0.036968450993299484,
        -0.7444931864738464,
        1.0
      ],
      "name": "Cylinder.004_4"
    },
    {
      "mesh": 7,
      "name": "Object_16"
    },
    {
      "children": [
        18
      ],
      "matrix": [
        1.0,
        0.0,
        0.0,
        0.0,
        0.0,
        1.0,
        0.0,
        0.0,
        0.0,
        0.0,
        1.0,
        0.0,
        0.5225078463554382,
        0.02729509398341179,
        -0.7568709254264832,
        1.0
      ],
      "name": "Cylinder.005_5"
    },
    {
      "mesh": 8,
      "name": "Object_18"
    },
    {
      "children": [
        20
      ],
      "matrix": [
        1.0,
        0.0,
        0.0,
        0.0,
        0.0,
        1.0,
        0.0,
        0.0,
        0.0,
        0.0,
        1.0,
        0.0,
        0.6198765635490417,
        0.0272951852530241,
        0.765828549861908,
        1.0
      ],
      "name": "Cylinder.006_6"
    },
    {
      "mesh": 9,
      "name": "Object_20"
    },
    {
      "children": [
        22
      ],
      "matrix": [
        1.0,
        0.0,
        0.0,
        0.0,
        0.0,
        1.0,
        0.0,
        0.0,
        0.0,
        0.0,
        1.0,
        0.0,
        0.6198765635490417,
        0.02729509398341179,
        -0.7568709254264832,
        1.0
      ],
      "name": "Cylinder.007_7"
    },
    {
      "mesh": 10,
      "name": "Object_22"
    },
    {
      "children": [
        24
      ],
      "matrix": [
        1.0,
        0.0,
        0.0,
        0.0,
        0.0,
        1.0,
        0.0,
        0.0,
        0.0,
        0.0,
        1.0,
        0.0,
        0.0,
        0.1291205734014511,
        0.0,
        1.0
      ],
      "name": "Plane_8"
    },
    {
      "mesh": 11,
      "name": "Object_24"
    },
    {
      "children": [
        26
      ],
      "name": "Extraction_13"
    },
    {
      "mesh": 12,
      "name": "Object_26"
    }
  ],
  "scene": 0,
  "scenes": [
    {
      "name": "Sketchfab_Scene",
      "nodes": [
        0
      ]
    }
  ]
}
